<?xml version="1.0" encoding="UTF-8"?>
<svg xmlns="http://www.w3.org/2000/svg" xmlns:xlink="http://www.w3.org/1999/xlink" width="24px" height="24px" viewBox="0 0 24 24" version="1.1">
<g id="surface1">
<path style="fill:none;stroke-width:1.776;stroke-linecap:round;stroke-linejoin:round;stroke:rgb(0%,0%,0%);stroke-opacity:1;stroke-miterlimit:4;" d="M 14.265625 15.9375 L 12.546875 14.234375 C 11.757812 13.453125 11.363281 13.058594 10.910156 12.914062 C 10.507812 12.785156 10.078125 12.785156 9.679688 12.914062 C 9.226562 13.058594 8.832031 13.453125 8.039062 14.234375 L 4.042969 18.261719 M 14.265625 15.9375 L 14.605469 15.597656 C 15.410156 14.800781 15.816406 14.398438 16.277344 14.253906 C 16.683594 14.125 17.121094 14.132812 17.523438 14.269531 C 17.984375 14.425781 18.375 14.835938 19.164062 15.652344 L 20 16.5 M 14.265625 15.9375 L 18.21875 19.960938 M 18.21875 19.960938 C 17.871094 20 17.421875 20 16.800781 20 L 7.199219 20 C 6.078125 20 5.519531 20 5.09375 19.78125 C 4.714844 19.589844 4.410156 19.285156 4.21875 18.90625 C 4.125 18.726562 4.074219 18.523438 4.042969 18.261719 M 18.21875 19.960938 C 18.5 19.933594 18.71875 19.878906 18.90625 19.78125 C 19.285156 19.589844 19.589844 19.285156 19.78125 18.90625 C 20 18.480469 20 17.921875 20 16.800781 L 20 13 M 11 4 L 7.199219 4 C 6.078125 4 5.519531 4 5.09375 4.21875 C 4.714844 4.410156 4.410156 4.714844 4.21875 5.09375 C 4 5.519531 4 6.078125 4 7.199219 L 4 16.800781 C 4 17.445312 4 17.90625 4.042969 18.261719 M 18 9 L 18 6 M 18 6 L 18 3 M 18 6 L 21 6 M 18 6 L 15 6 "/>
</g>
</svg>
