<?xml version="1.0" encoding="UTF-8"?>
<svg xmlns="http://www.w3.org/2000/svg" xmlns:xlink="http://www.w3.org/1999/xlink" width="24px" height="24px" viewBox="0 0 24 24" version="1.1">
<g id="surface1">
<path style="fill:none;stroke-width:1.824;stroke-linecap:round;stroke-linejoin:miter;stroke:rgb(10.980392%,15.294118%,29.803923%);stroke-opacity:1;stroke-miterlimit:4;" d="M 8 10.5 L 16 10.5 "/>
<path style="fill:none;stroke-width:1.824;stroke-linecap:round;stroke-linejoin:miter;stroke:rgb(10.980392%,15.294118%,29.803923%);stroke-opacity:1;stroke-miterlimit:4;" d="M 8 14 L 13.5 14 "/>
<path style="fill:none;stroke-width:1.824;stroke-linecap:round;stroke-linejoin:miter;stroke:rgb(10.980392%,15.294118%,29.803923%);stroke-opacity:1;stroke-miterlimit:4;" d="M 17 3.335938 C 15.527344 2.488281 13.820312 2 12 2 C 6.476562 2 2 6.476562 2 12 C 2 13.601562 2.375 15.113281 3.042969 16.453125 C 3.222656 16.808594 3.28125 17.214844 3.175781 17.601562 L 2.582031 19.828125 C 2.324219 20.792969 3.207031 21.675781 4.171875 21.417969 L 6.398438 20.824219 C 6.785156 20.71875 7.191406 20.777344 7.546875 20.957031 C 8.886719 21.625 10.398438 22 12 22 C 17.523438 22 22 17.523438 22 12 C 22 10.179688 21.511719 8.472656 20.664062 7 "/>
</g>
</svg>
